<svg width="17" height="18" viewBox="0 0 17 18" fill="none" xmlns="http://www.w3.org/2000/svg">
    <path
        d="M15.5864 12.4026L13.4916 10.3122C12.7435 9.56566 11.4717 9.86431 11.1724 10.8348C10.948 11.5068 10.1998 11.88 9.52652 11.7307C8.03024 11.3574 6.01027 9.41634 5.6362 7.84856C5.41176 7.17662 5.86064 6.43005 6.53397 6.20611C7.50655 5.90748 7.8058 4.63832 7.05766 3.89176L4.96288 1.80137C4.36437 1.27877 3.4666 1.27877 2.94291 1.80137L1.52144 3.21985C0.0999819 4.71298 1.67107 8.66978 5.18732 12.1786C8.70357 15.6875 12.6687 17.33 14.165 15.8368L15.5864 14.4183C16.1102 13.8211 16.1102 12.9252 15.5864 12.4026Z"
        stroke="white" stroke-width="2"/>
</svg>
